<svg xmlns="http://www.w3.org/2000/svg" viewBox="0 0 64 64">
  <!-- Fundo circular -->
  <circle cx="32" cy="32" r="32" fill="#0f172a"></circle>
  <!-- Octocat simplificado (cabeça do GitHub) -->
  <path d="M32 12c-11 0-20 9-20 20 0 8.9 5.8 16.4 13.9 19.1 1 .2 1.4-.4 1.4-.9 0-.5 0-2 0-3.6-5.6 1.2-6.7-2.4-6.7-2.4-.9-2.2-2.1-2.8-2.1-2.8-1.7-1.2.1-1.1.1-1.1 1.9.1 2.9 1.9 2.9 1.9 1.7 2.9 4.5 2.1 5.6 1.6.2-1.3.7-2.1 1.3-2.6-4.5-.5-9.2-2.3-9.2-10.1 0-2.2.8-4.1 2-5.6-.2-.5-.9-2.4.2-4.9 0 0 1.7-.5 5.7 2.1a19.7 19.7 0 0 1 10.4 0c4-2.6 5.7-2.1 5.7-2.1 1.1 2.5.4 4.4.2 4.9 1.2 1.5 2 3.4 2 5.6 0 7.8-4.7 9.6-9.2 10.1.7.6 1.4 1.8 1.4 3.6 0 2.6 0 4.6 0 5.2 0 .5.4 1.1 1.4.9C46.2 48.4 52 40.9 52 32c0-11-9-20-20-20z" fill="#fff"></path>
  <!-- Lupa (explorer) -->
  <circle cx="45" cy="45" r="6" stroke="#38bdf8" stroke-width="3" fill="none"></circle>
  <line x1="49" y1="49" x2="56" y2="56" stroke="#38bdf8" stroke-width="3" stroke-linecap="round"></line>
</svg>
